<svg width="1016" height="570" fill="none" xmlns="http://www.w3.org/2000/svg"><mask id="a" maskUnits="userSpaceOnUse" x="150" y="146" width="716" height="313"><ellipse cx="508" cy="302.703" rx="358" ry="155.863" fill="red"/></mask><g mask="url(#a)"><path d="M392.535 2.922l255.943 91.66c2.635.944 2.657 4.663.032 5.637l-107.277 39.814m-154.045 57.171s-52.347-18.095-117.589-41.028m117.589 41.028l146.612 55.22c2.588.975 2.591 4.634.006 5.613l-129.261 48.967m-17.357-109.8l154.045-57.171M87.777 91.959s130.137 46.049 181.822 64.217m0 0c-27.29 11.891-72.336 27.631-79.347 30.066a2.893 2.893 0 01-1.896 0l-208.827-69.73m10.613 254.752l122.616 45.484c.68.253 1.428.25 2.106-.007l105.261-39.875m0 0l184.42 64.962m-184.42-64.962l184.42-69.862m351.498 260.928L404.545 441.828m0 0l-110.988 45.523-104.213 42.745c-2.483 1.018-2.481 4.536.003 5.552l69.832 28.565m145.366-257.209l187.652 61.404a3 3 0 002.169-.118l112.238-50.753a2.996 2.996 0 012.214-.103l256.677 88.501M541.233 140.033l261.362 87.989a3 3 0 001.958-.015l245.097-86.711c2.66-.942 2.67-4.704.01-5.653L881.867 75.767" stroke="#fff" stroke-width="4" stroke-linecap="round" stroke-linejoin="round"/></g><ellipse cx="508.377" cy="300.07" rx="15.172" ry="8.582" fill="#fff"/><path d="M508.376 166.055c-23.703 0-42.987 20.588-42.987 45.894 0 28.186 33.792 74.063 41.484 84.141a1.892 1.892 0 003.061-.02c7.627-10.268 41.429-57.291 41.429-84.121 0-25.306-19.284-45.894-42.987-45.894z" fill="#F85F3F"/><path d="M488.146 226.314v-17.197c0-6.026 4.711-10.926 10.507-10.926h5.842v4.018h-5.842c-3.487 0-6.314 3.184-6.314 6.81v2.254h10.79v3.772h-10.79v11.269h-4.193zm38.274-5.644l2.12 3.3c-2.673 2.343-5.761 3.347-8.526 3.347-7.834 0-13.595-6.313-13.595-14.061s5.761-14.061 13.595-14.061c2.765 0 5.807 1.005 8.526 3.348l-2.12 3.3c-2.12-1.769-4.516-2.535-6.59-2.535-5.208 0-9.033 4.544-9.033 9.996 0 5.452 3.825 9.996 9.033 9.996 2.074-.096 4.47-.861 6.59-2.63z" fill="#fff"/></svg>