<svg width="87" height="143" fill="none" xmlns="http://www.w3.org/2000/svg"><ellipse cx="43.377" cy="134.07" rx="15.172" ry="8.582" fill="#fff"/><path d="M43.376.055C19.673.055.389 20.643.389 45.949c0 28.186 33.792 74.063 41.484 84.141a1.892 1.892 0 003.062-.02c7.626-10.268 41.428-57.29 41.428-84.121C86.363 20.643 67.079.055 43.376.055z" fill="#F85F3F"/><path d="M23.145 60.313V43.117c0-6.026 4.712-10.926 10.508-10.926h5.842v4.018h-5.842c-3.487 0-6.314 3.184-6.314 6.81v2.254h10.79v3.772h-10.79v11.268h-4.194zM61.42 54.67l2.12 3.3c-2.673 2.343-5.76 3.347-8.526 3.347-7.834 0-13.595-6.313-13.595-14.06 0-7.749 5.761-14.062 13.595-14.062 2.765 0 5.807 1.005 8.526 3.348l-2.12 3.3c-2.12-1.77-4.516-2.535-6.59-2.535-5.208 0-9.033 4.544-9.033 9.996 0 5.452 3.825 9.996 9.033 9.996 2.074-.096 4.47-.86 6.59-2.63z" fill="#fff"/></svg>