<svg width="716" height="361" fill="none" xmlns="http://www.w3.org/2000/svg"><ellipse cx="358.649" cy="180.477" rx="345.644" ry="180.477" fill="#fff" fill-opacity=".05"/><ellipse cx="359.237" cy="179.864" rx="203.977" ry="107.427" fill="#fff" fill-opacity=".05"/><ellipse cx="358.06" cy="179.251" rx="57.02" ry="29.466" fill="#fff" fill-opacity=".1"/><ellipse cx="358.377" cy="179.07" rx="15.172" ry="8.582" fill="#fff"/><path d="M358.376 45.055c-23.703 0-42.987 20.588-42.987 45.894 0 28.186 33.792 74.063 41.484 84.141a1.892 1.892 0 003.061-.02c7.627-10.268 41.429-57.291 41.429-84.121 0-25.306-19.284-45.894-42.987-45.894z" fill="#F85F3F"/><path d="M338.146 105.314V88.117c0-6.026 4.711-10.926 10.507-10.926h5.842v4.018h-5.842c-3.487 0-6.314 3.184-6.314 6.81v2.254h10.79v3.772h-10.79v11.269h-4.193zm38.274-5.644l2.12 3.3c-2.673 2.343-5.761 3.347-8.526 3.347-7.834 0-13.595-6.313-13.595-14.06 0-7.749 5.761-14.062 13.595-14.062 2.765 0 5.807 1.005 8.526 3.348l-2.12 3.3c-2.12-1.77-4.516-2.535-6.59-2.535-5.208 0-9.033 4.544-9.033 9.996 0 5.452 3.825 9.996 9.033 9.996 2.074-.096 4.47-.861 6.59-2.63z" fill="#fff"/></svg>