<svg width="107" height="24" fill="none" xmlns="http://www.w3.org/2000/svg"><path d="M0 18.328V7.331A6.993 6.993 0 016.987.344h3.885v2.569H6.987c-2.319 0-4.198 2.036-4.198 4.355v1.441h7.174v2.413H2.79v7.206H0zm54.236.441c-3.634 0-6.611-2.977-6.611-6.611 0-3.635 2.977-6.611 6.611-6.611s6.61 2.976 6.61 6.61c0 3.635-2.976 6.612-6.61 6.612zm0-10.747c-2.193 0-3.98 1.849-3.98 4.136s1.787 4.136 3.98 4.136 3.98-1.849 3.98-4.136-1.787-4.136-3.98-4.136zM17.078 18.767c-1.661-.094-4.262-.846-4.262-4.418V.344h2.695v14.193c0 1.003.564 1.598 1.598 1.723v2.507h-.032zM75.039 4.762v1.285h2.694v2.381H75.04v9.368c-.063 2.914-1.88 5.045-4.731 5.045h-.345v-2.476h.094c1.598 0 2.287-1.033 2.287-2.6V8.428H66.83v9.368c-.063 2.914-1.88 5.045-4.731 5.045h-.345v-2.476h.094c1.598 0 2.287-1.033 2.287-2.6V8.428h-2.694V6.047h2.694V5.044C64.198 2.131 66.33 0 69.18 0h.344v2.475h-.094c-1.597 0-2.631.72-2.631 2.287v1.285h5.514V5.044C72.376 2.131 74.506 0 77.357 0h.345v2.475h-.094c-1.535 0-2.57.72-2.57 2.287zm10.433 14.007c-4.136 0-7.113-2.789-7.113-6.611 0-3.635 3.07-6.611 6.737-6.611 3.164 0 5.765 2.256 6.36 5.358.094.407.125.846.125 1.253 0 .313-.031.627-.062 1.034H81.117v.094c.344 1.754 1.973 3.008 3.979 3.008 1.19 0 2.444-.376 3.634-1.254l1.347 2.006c-1.535 1.19-3.07 1.723-4.605 1.723zM84.97 8.022c-1.66 0-3.603 1.16-3.853 3.008v.125h7.707v-.125c-.25-1.849-2.193-3.008-3.854-3.008zm15.417 10.747c-4.136 0-7.113-2.789-7.113-6.611 0-3.635 3.07-6.611 6.737-6.611 3.164 0 5.765 2.256 6.36 5.358.094.407.125.846.125 1.253 0 .313-.031.627-.062 1.034H96.032v.094c.344 1.754 1.974 3.008 3.979 3.008 1.19 0 2.444-.376 3.634-1.254l1.347 2.006c-1.535 1.19-3.101 1.723-4.605 1.723zm-.502-10.747c-1.66 0-3.603 1.16-3.853 3.008v.125h7.707v-.125c-.282-1.849-2.224-3.008-3.854-3.008zm-54.111 6.421l1.44 2.162c-1.816 1.535-3.916 2.193-5.795 2.193-5.327 0-9.243-4.136-9.243-9.212 0-5.075 3.916-9.211 9.243-9.211 1.88 0 3.947.658 5.796 2.193L45.774 4.73c-1.442-1.16-3.07-1.66-4.48-1.66-3.541 0-6.142 2.976-6.142 6.548s2.6 6.548 6.141 6.548a7.746 7.746 0 004.48-1.723zM27.07 6.047v7.175c0 1.66-1.535 3.102-3.29 3.102-1.66 0-2.913-1.316-2.913-3.102V6.047h-2.695v6.955c0 3.29 2.35 5.765 5.42 5.765 1.567 0 2.883-.845 3.447-1.629v1.285a3.109 3.109 0 01-3.102 3.102c-.689 0-1.723-.376-2.318-.846l-1.347 2.005c.97.877 2.412 1.316 3.665 1.316a5.77 5.77 0 005.765-5.765V6.047H27.07z" fill="#343779"/></svg>