<svg width="228" height="228" fill="none" xmlns="http://www.w3.org/2000/svg"><path d="M113.769 4.525c60.328 0 109.194 48.865 109.194 109.193 0 60.329-48.866 109.194-109.194 109.194S4.575 174.047 4.575 113.718C4.575 53.39 53.44 4.525 113.769 4.525zm0-4.525C98.435 0 83.504 3.016 69.478 8.949c-13.524 5.73-25.69 13.925-36.147 24.382C22.874 43.788 14.68 55.954 8.95 69.478 3.016 83.504 0 98.385 0 113.769c0 15.333 3.016 30.264 8.949 44.291 5.73 13.523 13.925 25.689 24.382 36.146s22.623 18.652 36.147 24.383c14.026 5.932 28.907 8.948 44.291 8.948 15.333 0 30.264-3.016 44.291-8.948 13.523-5.731 25.689-13.926 36.146-24.383 10.457-10.457 18.652-22.623 24.383-36.146 5.932-14.027 8.948-28.908 8.948-44.291 0-15.334-3.016-30.265-8.948-44.291-5.731-13.524-13.926-25.69-24.383-36.147C183.749 22.874 171.583 14.68 158.06 8.95 144.033 2.966 129.102 0 113.769 0z" fill="#343779"/><path d="M47.207 156.199c.754 1.207 1.257 2.363 1.458 3.419.2 1.056.2 2.011 0 2.916a5.363 5.363 0 01-1.056 2.061 6.963 6.963 0 01-1.71 1.508l-.452.252a6.425 6.425 0 01-2.111.854c-.755.151-1.559.201-2.313.051a6.795 6.795 0 01-2.664-1.257c-.855-.654-1.66-1.559-2.414-2.765l-.402-.654c-1.005-1.558-1.508-3.066-1.558-4.524-.05-1.257.2-2.363.804-3.318.503-.855 1.207-1.559 2.061-2.112l.453-.251c.855-.553 1.81-.855 2.815-.955 1.156-.101 2.262.1 3.318.703 1.257.704 2.363 1.81 3.318 3.419l.453.653zm-3.369 6.838c.805-.503 1.358-1.157 1.559-1.961.302-1.005 0-2.262-.905-3.62-.855-1.357-1.81-2.161-2.866-2.363-.804-.15-1.659 0-2.463.503l-.201.151a3.084 3.084 0 00-.955.855c-.302.352-.453.704-.604 1.156-.301 1.056 0 2.262.805 3.62.854 1.407 1.86 2.161 2.916 2.362.804.151 1.608 0 2.463-.553l.251-.15zm5.078 12.417c1.006-.352 2.011-.955 3.017-1.81 1.256-1.055 2.865-2.614 4.725-4.675l9.1 8.195-6.687 7.44 1.559 1.408-3.318 3.72-2.514-2.262 1.458-1.609-7.642-6.888-1.457 1.609-2.514-2.262 3.318-3.72.955.854zm7.541 6.787l4.776-5.329-3.972-3.569c-1.106 1.206-2.111 2.212-3.117 2.966-1.005.754-1.86 1.307-2.563 1.558l4.876 4.374zm20.361 16.037l2.262-4.625-6.435-3.117-2.262 4.625-3.218-1.558 5.63-11.513 3.218 1.559-2.06 4.273 6.434 3.117 2.112-4.273 3.217 1.558-5.63 11.513-3.268-1.559zm24.887 6.988l-.604-2.513-6.837-1.207-1.458 2.162-3.519-.654 7.893-11.613 4.675.855 3.57 13.674-3.72-.704zm-1.307-5.329l-1.358-5.53-3.167 4.726 4.525.804zm38.859 4.776l-.452-2.111-11.714 2.614-2.815-12.518 3.469-.804 2.212 9.753 6.032-1.358-2.212-9.753 3.469-.804 2.212 9.753 2.011-.453 1.106 4.877-3.318.804zm6.085-17.947l10.406-5.48 1.307 2.463-7.289 3.821.955 1.86 7.089-3.72 1.357 2.564-7.089 3.72 1.056 1.961 7.39-3.871 1.307 2.513-10.507 5.531-5.982-11.362zm33.231-7.541l-3.52-3.771-5.278 4.877 3.519 3.77-2.614 2.413-8.698-9.451 2.615-2.413 3.217 3.519 5.279-4.877-3.218-3.519 2.615-2.413 8.697 9.452-2.614 2.413zm15.533-20.562l-2.564-.352-3.62 5.882 1.458 2.111-1.86 3.017-7.943-11.563 2.513-4.072 14.026 1.659-2.01 3.318zm-5.43-.754l-5.681-.754 3.268 4.675 2.413-3.921zM23.88 95.871c.301-1.407.704-2.563 1.257-3.468.553-.905 1.206-1.61 2.01-2.112.704-.402 1.408-.704 2.162-.804a6.88 6.88 0 012.263.05l.502.1a6.346 6.346 0 012.112.805c.653.402 1.257.905 1.71 1.558.552.754.904 1.66 1.105 2.715.201 1.056.151 2.313-.15 3.67l-.151.754c-.352 1.81-1.006 3.268-1.961 4.374-.804.955-1.76 1.558-2.866 1.86a6.56 6.56 0 01-2.966.101l-.503-.101a6.635 6.635 0 01-2.714-1.206c-.905-.704-1.559-1.66-1.91-2.816-.403-1.357-.453-2.916-.101-4.776l.2-.704zm7.139-2.714c-.956-.201-1.76-.05-2.464.352-.905.553-1.508 1.659-1.86 3.267-.302 1.559-.15 2.816.453 3.721.502.703 1.206 1.106 2.161 1.307l.252.05c.402.1.854.1 1.256.05.453-.05.855-.201 1.207-.452.955-.604 1.559-1.66 1.91-3.218.302-1.608.151-2.865-.502-3.72-.503-.653-1.207-1.106-2.162-1.307l-.251-.05zM38.26 82.6c-.604-.855-1.408-1.71-2.464-2.514-1.307-1.006-3.217-2.112-5.68-3.419l5.73-10.809 8.849 4.676.955-1.81 4.424 2.312-1.559 2.966-1.91-1.005-4.826 9.1 1.91 1.005-1.558 2.966-4.425-2.313.553-1.156zm4.725-8.9l-6.334-3.368-2.464 4.676c1.408.754 2.665 1.508 3.62 2.313 1.005.804 1.71 1.508 2.162 2.111l3.016-5.731zm16.942-16.941l-3.67-3.62-4.977 5.128 3.67 3.62-2.463 2.564-9.25-9 2.463-2.563 3.418 3.318 4.977-5.128-3.418-3.318 2.463-2.564 9.2 8.949-2.413 2.614zm18.751-13.122l-2.112-1.558-6.032 3.418.301 2.564-3.117 1.76-1.407-13.976 4.122-2.363 11.513 8.195-3.268 1.96zm-4.424-3.217l-4.625-3.369.603 5.681 4.022-2.312zm33.331-14.73l-5.48.603c.402 3.77.453 6.334.201 7.591-.151.754-.452 1.358-.854 1.76-.553.553-1.408.905-2.564 1.056l-1.257.15-.302-3.016h.1c.855-.1 1.358-.503 1.56-1.207.1-.301.15-.703.15-1.206 0-.704-.05-1.559-.15-2.564-.152-1.609-.302-3.268-.504-5.027l12.368-1.307 1.357 12.769-3.519.352-1.106-9.954zm34.89 7.893a6.448 6.448 0 01-.855 2.111c-.402.654-.955 1.207-1.558 1.71-.754.552-1.659.904-2.715 1.055-1.056.151-2.262.1-3.569-.2l-.755-.152c-2.312-.502-3.971-1.458-5.027-2.865-.855-1.157-1.207-2.464-1.106-3.972l-1.961-.402-1.106 5.027-3.469-.754 2.715-12.518 3.469.754-1.005 4.676 2.011.452c.603-1.357 1.508-2.313 2.714-2.916 1.509-.754 3.369-.854 5.581-.402l.754.15c1.357.302 2.463.705 3.368 1.308a5.903 5.903 0 012.011 2.01 5.78 5.78 0 01.754 2.213c.101.754.05 1.508-.1 2.262l-.151.453zm-3.519-1.157c.201-.955.1-1.76-.302-2.463-.503-.905-1.558-1.559-3.067-1.86-1.508-.352-2.714-.201-3.569.402-.654.453-1.106 1.156-1.307 2.111l-.05.252c-.202.955-.101 1.76.301 2.463.503.955 1.559 1.609 3.067 1.91 1.508.353 2.715.151 3.62-.452.653-.452 1.106-1.206 1.307-2.162v-.2zm15.584-.402l11.412 6.737-1.457 2.413-8.346-4.927-.854 1.408 4.625 2.765c1.608.955 2.614 1.96 2.966 3.066.301.956.151 1.961-.503 3.067l-.1.151c-.654 1.106-1.458 1.76-2.464 1.96-1.106.252-2.514-.1-4.122-1.055l-7.692-4.575 6.535-11.01zm2.414 13.021c.502.302.955.453 1.357.402.402-.05.653-.251.905-.603l.05-.1c.201-.353.201-.654.101-1.006-.151-.352-.503-.654-1.006-.955l-4.424-2.614-1.357 2.312 4.374 2.564zm24.029 6.837c.955 1.056 1.659 2.061 2.111 3.067.403 1.005.604 1.96.553 2.865a5.81 5.81 0 01-.603 2.263 6.11 6.11 0 01-1.357 1.81l-.402.352a7.414 7.414 0 01-1.911 1.256 5.681 5.681 0 01-2.262.453c-.905 0-1.86-.252-2.866-.704-.955-.453-1.96-1.207-2.916-2.262l-.502-.553c-1.257-1.358-2.061-2.715-2.413-4.123-.302-1.206-.252-2.363.15-3.418.352-.956.905-1.76 1.659-2.464l.403-.352c.754-.704 1.608-1.206 2.564-1.458 1.106-.351 2.212-.301 3.418.1 1.358.453 2.665 1.358 3.922 2.716l.452.452zm-1.961 7.34c.704-.654 1.106-1.408 1.157-2.212.05-1.056-.453-2.212-1.559-3.418-1.106-1.157-2.212-1.76-3.268-1.76-.854 0-1.608.301-2.312 1.005l-.201.151c-.302.302-.553.604-.754 1.006a3.58 3.58 0 00-.352 1.257c-.101 1.105.402 2.262 1.508 3.418 1.106 1.207 2.212 1.76 3.318 1.76.855 0 1.609-.352 2.312-1.006l.151-.2zm13.475 7.792l4.223 8.346c.754 1.458 1.005 2.715.754 3.72-.201.754-.654 1.358-1.408 1.76l-.151.1c-.653.352-1.307.352-2.011.1-.553-.2-1.005-.603-1.307-1.055.252.804.302 1.558.101 2.212-.251.804-.754 1.458-1.609 1.86l-.151.1a3.947 3.947 0 01-1.307.403c-.452.05-.905 0-1.357-.201-1.106-.453-2.112-1.458-2.916-3.167l-4.223-8.396 11.362-5.782zm-5.128 6.536l-2.262 1.156 2.513 4.977c.252.503.553.855.955.956.302.1.604.05.956-.101l.05-.05c.352-.151.503-.403.603-.654.101-.352 0-.754-.251-1.307l-2.564-4.977zm4.323-2.162l-2.061 1.006 2.363 4.725c.402.855.955 1.056 1.609.755h.05c.302-.151.503-.352.603-.654.101-.302 0-.654-.201-1.106l-2.363-4.726zm7.342 23.528l.955 5.128c.352 1.86.201 3.268-.402 4.273-.553.855-1.458 1.408-2.766 1.659l-.201.051c-1.307.251-2.362.05-3.217-.553-.955-.704-1.609-1.961-1.961-3.771l-1.659-8.647 12.619-2.413.653 3.469-4.021.804zm-4.827 5.932c.101.604.302 1.006.654 1.257.301.252.704.352 1.156.252h.101c.452-.101.754-.302.955-.654.201-.352.251-.804.1-1.408l-.905-4.876-2.966.553.905 4.876zM33.532 123.421c-1.407 0-2.714.553-3.62 1.508-.955-.904-2.211-1.508-3.62-1.508a5.117 5.117 0 00-5.127 5.128c0 1.86.352 4.022 3.52 7.139l5.278 5.279 5.279-5.279c3.117-3.117 3.519-5.279 3.519-7.139a5.237 5.237 0 00-5.229-5.128zm155.446 6.536h2.714v-7.943h7.944c3.77 0 6.032 2.161 6.032 5.228 0 3.067-2.262 5.228-6.032 5.228h-4.424v1.659h6.786v2.564h-6.786v2.665h-3.52v-2.665h-2.714v-2.564h2.714v-1.659h-2.714v-2.513zm10.205 0c1.81 0 2.916-.855 2.916-2.413 0-1.559-1.106-2.413-2.916-2.413h-3.971v4.826h3.971zM85.867 101.1c-.754 0-1.458.05-2.212.1l12.417-20.059H85.213L66.01 112.16c-2.212 3.569-3.469 7.792-3.469 12.317 0 12.92 10.457 23.377 23.327 23.377 12.87 0 23.377-10.457 23.377-23.377 0-12.92-10.457-23.377-23.377-23.377zm0 37.454c-7.591 0-13.775-6.335-13.775-14.077 0-2.715.754-5.279 2.061-7.44 2.413-4.022 6.737-6.687 11.714-6.687 7.591 0 13.775 6.335 13.775 14.077s-6.184 14.127-13.775 14.127zm55.753-58.871c-12.92 0-23.327 10.457-23.327 23.378v21.366c0 12.92 10.457 23.377 23.327 23.377 12.92 0 23.377-10.457 23.377-23.377v-21.366c0-12.92-10.457-23.378-23.377-23.378zm13.775 44.744c0 7.792-6.133 14.076-13.775 14.076-7.591 0-13.775-6.334-13.775-14.076v-21.366c0-7.793 6.134-14.077 13.775-14.077 7.591 0 13.775 6.334 13.775 14.077v21.366z" fill="#343779"/></svg>