<svg width="22" height="13" fill="none" xmlns="http://www.w3.org/2000/svg"><path d="M21.804 11.196c-.06-.099-.425-.894-2.185-2.527-1.843-1.71-1.595-1.433.624-4.39 1.352-1.802 1.892-2.902 1.723-3.373-.16-.448-1.155-.33-1.155-.33l-3.306.02s-.244-.033-.427.075c-.178.107-.292.355-.292.355s-.524 1.394-1.222 2.58c-1.473 2.5-2.063 2.633-2.304 2.478-.56-.362-.419-1.455-.419-2.23 0-2.425.367-3.436-.716-3.697C11.765.07 11.5.012 10.58.003 9.4-.01 8.4.007 7.836.283c-.377.185-.667.596-.49.62.219.028.714.133.976.49.34.46.328 1.498.328 1.498s.195 2.853-.455 3.208c-.447.243-1.06-.253-2.373-2.524-.672-1.162-1.18-2.447-1.18-2.447S4.543.888 4.368.76C4.157.605 3.86.556 3.86.556L.717.575S.245.589.072.794c-.154.182-.013.56-.013.56s2.462 5.757 5.248 8.66c2.556 2.66 5.458 2.486 5.458 2.486h1.314s.398-.044.6-.263c.187-.2.18-.577.18-.577s-.026-1.765.793-2.025c.808-.255 1.844 1.706 2.943 2.46.83.571 1.462.446 1.462.446l2.938-.041s1.538-.095.809-1.304z" fill="#343779"/></svg>